<?xml version="1.0" encoding="UTF-8" standalone="no"?>
<!DOCTYPE svg PUBLIC "-//W3C//DTD SVG 1.1//EN" "http://www.w3.org/Graphics/SVG/1.1/DTD/svg11.dtd">
<svg width="100%" height="100%" viewBox="0 0 86 86" version="1.1" xmlns="http://www.w3.org/2000/svg" xmlns:xlink="http://www.w3.org/1999/xlink" xml:space="preserve" xmlns:serif="http://www.serif.com/" style="fill-rule:evenodd;clip-rule:evenodd;stroke-linejoin:round;stroke-miterlimit:2;">
    <g id="Layer_1">
        <circle cx="43" cy="43" r="42.7" style="fill:url(#_Linear1);"/>
        <g transform="matrix(0.124747,0,0,0.124747,11.0648,11.0648)">
            <path d="M512,256C460.898,167.663 365.392,108.226 256,108.226C146.608,108.226 51.102,167.663 0,256C51.102,344.337 146.608,403.774 256,403.774C365.392,403.774 460.898,344.337 512,256Z" style="fill:rgb(208,238,239);fill-rule:nonzero;"/>
            <circle cx="256" cy="256" r="146.286" style="fill:rgb(65,187,190);"/>
            <circle cx="256" cy="256" r="78.769" style="fill:rgb(6,72,74);"/>
            <circle cx="256" cy="256" r="78.769" style="fill:none;stroke:white;stroke-width:8.02px;"/>
            <g transform="matrix(8.46527,0,0,8.73565,-100.217,-109.509)">
                <path d="M41.9,42.014L41.894,24.582C36.439,24.743 31.282,26.088 26.671,28.37L41.9,42.014Z" style="fill:rgb(208,238,239);fill-rule:nonzero;"/>
            </g>
            <g transform="matrix(8.01624,0,0,8.01624,-88.6982,-88.6977)">
                <path d="M42.804,24.752C42.869,24.752 42.935,24.751 43,24.751C53.072,24.751 61.249,32.928 61.249,43C61.249,53.072 53.072,61.249 43,61.249C32.928,61.249 24.751,53.072 24.751,43C24.751,38.318 26.519,34.045 29.423,30.812L42.81,43.189L42.804,24.752Z" style="fill:none;stroke:white;stroke-width:1px;"/>
            </g>
            <g>
                <path d="M75.956,135.033C71.295,135.033 67.516,131.255 67.516,126.593L67.516,75.956C67.516,71.294 71.295,67.516 75.956,67.516L126.593,67.516C131.254,67.516 135.033,71.294 135.033,75.956C135.033,80.618 131.254,84.396 126.593,84.396L84.396,84.396L84.396,126.594C84.396,131.255 80.617,135.033 75.956,135.033Z" style="fill:white;fill-rule:nonzero;"/>
                <path d="M436.044,135.033C431.382,135.033 427.604,131.255 427.604,126.593L427.604,84.396L385.406,84.396C380.744,84.396 376.966,80.618 376.966,75.956C376.966,71.294 380.744,67.516 385.406,67.516L436.043,67.516C440.705,67.516 444.483,71.294 444.483,75.956L444.483,126.593C444.484,131.255 440.706,135.033 436.044,135.033Z" style="fill:white;fill-rule:nonzero;"/>
                <path d="M126.593,444.484L75.956,444.484C71.295,444.484 67.516,440.706 67.516,436.044L67.516,385.407C67.516,380.745 71.295,376.967 75.956,376.967C80.617,376.967 84.396,380.745 84.396,385.407L84.396,427.605L126.594,427.605C131.255,427.605 135.034,431.383 135.034,436.045C135.034,440.707 131.254,444.484 126.593,444.484Z" style="fill:white;fill-rule:nonzero;"/>
                <path d="M436.044,444.484L385.407,444.484C380.745,444.484 376.967,440.706 376.967,436.044C376.967,431.382 380.745,427.604 385.407,427.604L427.605,427.604L427.605,385.406C427.605,380.744 431.383,376.966 436.045,376.966C440.707,376.966 444.485,380.744 444.485,385.406L444.485,436.043C444.484,440.706 440.706,444.484 436.044,444.484Z" style="fill:white;fill-rule:nonzero;"/>
            </g>
            <path d="M469.802,247.56L264.44,247.56L264.44,42.198C264.44,37.536 260.662,33.758 256,33.758C251.339,33.758 247.56,37.536 247.56,42.198L247.56,247.56L42.198,247.56C37.537,247.56 33.758,251.338 33.758,256C33.758,260.662 37.537,264.44 42.198,264.44L247.56,264.44L247.56,469.803C247.56,474.465 251.339,478.243 256,478.243C260.662,478.243 264.44,474.465 264.44,469.803L264.44,264.44L469.803,264.44C474.465,264.44 478.243,260.662 478.243,256C478.242,251.338 474.464,247.56 469.802,247.56Z" style="fill:white;fill-rule:nonzero;"/>
        </g>
    </g>
    <defs>
        <linearGradient id="_Linear1" x1="0" y1="0" x2="1" y2="0" gradientUnits="userSpaceOnUse" gradientTransform="matrix(60.3871,60.3871,-60.3871,60.3871,12.8064,12.8066)"><stop offset="0" style="stop-color:rgb(74,170,170);stop-opacity:1"/><stop offset="1" style="stop-color:rgb(0,200,222);stop-opacity:1"/></linearGradient>
    </defs>
</svg>
